<svg id="Layer_1" data-name="Layer 1" xmlns="http://www.w3.org/2000/svg" viewBox="0 0 679.75 89.63"><defs><style>.cls-1{font-size:28px;fill:#3c3c3b;font-family:LucidaGrande, Lucida Grande;}</style></defs><title>logo-black</title><path d="M385.11,520.72,373,502.47h-9.1v18.26h-6.35V477.49h15.68a37.51,37.51,0,0,1,7.08.63,16.4,16.4,0,0,1,5.58,2.08,10.4,10.4,0,0,1,3.63,3.76,11.4,11.4,0,0,1,1.3,5.67,10.9,10.9,0,0,1-3.06,8.11,16.24,16.24,0,0,1-8.18,4.15l12.7,18.85ZM363.93,498h8.41q5.89,0,9-2.08a7,7,0,0,0,3.14-6.29q0-4.28-3.14-6t-9-1.71h-8.41Z" transform="translate(-243.61 -454.29)"/><path d="M403.55,477.49h6.35v43.23h-6.35Z" transform="translate(-243.61 -454.29)"/><path d="M423.81,511.3a21.11,21.11,0,0,0,6.31,3.92,19.75,19.75,0,0,0,7.53,1.48q5,0,7.73-1.94a6,6,0,0,0,2.75-5.11,5.64,5.64,0,0,0-.65-2.8,6.34,6.34,0,0,0-1.76-2,13.2,13.2,0,0,0-2.64-1.48L439.8,502l-7.19-2.7a36,36,0,0,1-3.59-1.58,14.59,14.59,0,0,1-3.29-2.24,10.7,10.7,0,0,1-2.37-3.13,9.62,9.62,0,0,1,.27-8.73,11.56,11.56,0,0,1,3.29-3.66,16.08,16.08,0,0,1,5-2.41,22,22,0,0,1,6.31-.86,22.87,22.87,0,0,1,8.34,1.48A21.3,21.3,0,0,1,453,482l-3.44,3.56a18.25,18.25,0,0,0-5.09-3,17.29,17.29,0,0,0-6.31-1.09,12.17,12.17,0,0,0-6.77,1.68,5.27,5.27,0,0,0-2.56,4.65,4.69,4.69,0,0,0,.73,2.67,7,7,0,0,0,2,1.91,16.23,16.23,0,0,0,2.68,1.45q1.45.63,3,1.15l7.11,2.64a32.6,32.6,0,0,1,4.05,1.81,14.3,14.3,0,0,1,3.29,2.37,10.47,10.47,0,0,1,1.8,12.16,11.89,11.89,0,0,1-3.4,3.92,17,17,0,0,1-5.35,2.64,24.41,24.41,0,0,1-7.11,1,27.37,27.37,0,0,1-9.79-1.71,24.47,24.47,0,0,1-7.8-4.68Z" transform="translate(-243.61 -454.29)"/><path d="M464.51,477.49h6.35v21.68h.23L492,477.49h7.19L483.48,494l18.13,26.76h-7.11l-15-22.47L470.85,507v13.71h-6.35Z" transform="translate(-243.61 -454.29)"/><path d="M509.4,511.3a21.11,21.11,0,0,0,6.31,3.92,19.75,19.75,0,0,0,7.53,1.48q5,0,7.73-1.94a6,6,0,0,0,2.75-5.11,5.64,5.64,0,0,0-.65-2.8,6.34,6.34,0,0,0-1.76-2,13.2,13.2,0,0,0-2.64-1.48L525.39,502l-7.19-2.7a36,36,0,0,1-3.59-1.58,14.59,14.59,0,0,1-3.29-2.24,10.7,10.7,0,0,1-2.37-3.13,9.62,9.62,0,0,1,.27-8.73A11.56,11.56,0,0,1,512.5,480a16.08,16.08,0,0,1,5-2.41,22,22,0,0,1,6.31-.86,22.87,22.87,0,0,1,8.34,1.48,21.3,21.3,0,0,1,6.5,3.86l-3.44,3.56a18.25,18.25,0,0,0-5.09-3,17.29,17.29,0,0,0-6.31-1.09,12.17,12.17,0,0,0-6.77,1.68,5.27,5.27,0,0,0-2.56,4.65,4.69,4.69,0,0,0,.73,2.67,7,7,0,0,0,2,1.91,16.23,16.23,0,0,0,2.68,1.45q1.45.63,3,1.15l7.11,2.64a32.6,32.6,0,0,1,4.05,1.81,14.3,14.3,0,0,1,3.29,2.37A10.47,10.47,0,0,1,539,514a11.89,11.89,0,0,1-3.4,3.92,17,17,0,0,1-5.35,2.64,24.41,24.41,0,0,1-7.11,1,27.37,27.37,0,0,1-9.79-1.71,24.47,24.47,0,0,1-7.8-4.68Z" transform="translate(-243.61 -454.29)"/><path d="M547.19,499.11a24.73,24.73,0,0,1,1.68-9.36,19.94,19.94,0,0,1,11.74-11.5,25,25,0,0,1,8.91-1.55,18.74,18.74,0,0,1,8,1.61,21.26,21.26,0,0,1,5.66,3.72l-3.59,3.49a16.32,16.32,0,0,0-4.4-2.93,13.55,13.55,0,0,0-5.62-1.09,16.66,16.66,0,0,0-6.5,1.22,13.88,13.88,0,0,0-5,3.49,16.1,16.1,0,0,0-3.21,5.5,21.57,21.57,0,0,0-1.15,7.25,22.75,22.75,0,0,0,1.11,7.35,16.57,16.57,0,0,0,3.1,5.57,13.36,13.36,0,0,0,4.86,3.56,16,16,0,0,0,6.46,1.25,15.12,15.12,0,0,0,6.39-1.25,19.36,19.36,0,0,0,5.16-3.56l3.6,3.36a22.09,22.09,0,0,1-6.73,4.61,21.12,21.12,0,0,1-8.57,1.65,24.62,24.62,0,0,1-8.76-1.52,19.41,19.41,0,0,1-11.55-11.43A25.67,25.67,0,0,1,547.19,499.11Z" transform="translate(-243.61 -454.29)"/><path d="M610.06,521.51a23.09,23.09,0,0,1-8.68-1.58,19.23,19.23,0,0,1-6.77-4.51,20.37,20.37,0,0,1-4.4-7.12,26.59,26.59,0,0,1-1.57-9.39,26.06,26.06,0,0,1,1.57-9.33,19.83,19.83,0,0,1,4.4-7,18.94,18.94,0,0,1,6.77-4.38,24,24,0,0,1,8.68-1.52,23.55,23.55,0,0,1,8.68,1.55A19.23,19.23,0,0,1,630,489.65a25.91,25.91,0,0,1,1.57,9.26A26.65,26.65,0,0,1,630,508.3a20.13,20.13,0,0,1-4.44,7.12,19.62,19.62,0,0,1-6.81,4.51A23.1,23.1,0,0,1,610.06,521.51Zm0-4.81a14.35,14.35,0,0,0,6.08-1.25,13.21,13.21,0,0,0,4.67-3.59,16.84,16.84,0,0,0,3-5.6,23.47,23.47,0,0,0,1.07-7.35,22.94,22.94,0,0,0-1.07-7.25,15.8,15.8,0,0,0-3-5.47,13.42,13.42,0,0,0-4.67-3.46,15.78,15.78,0,0,0-12.16,0,13.41,13.41,0,0,0-4.66,3.46,15.8,15.8,0,0,0-3,5.47,23,23,0,0,0-1.07,7.25,23.47,23.47,0,0,0,1.07,7.35,16.84,16.84,0,0,0,3,5.6,13.21,13.21,0,0,0,4.66,3.59A14.35,14.35,0,0,0,610.06,516.7Z" transform="translate(-243.61 -454.29)"/><path d="M640.81,477.49h15.37a40.44,40.44,0,0,1,7.57.66,17.31,17.31,0,0,1,5.85,2.14,10.45,10.45,0,0,1,3.75,3.92,14,14,0,0,1,0,11.93,11.47,11.47,0,0,1-3.79,4.15,17.93,17.93,0,0,1-5.85,2.47,32,32,0,0,1-7.53.82h-9v17.14h-6.35Zm14.61,21.62q6.58,0,9.75-2.14t3.17-6.75q0-4.68-3.21-6.49t-9.71-1.81h-8.26v17.2Z" transform="translate(-243.61 -454.29)"/><path d="M683.34,477.49h28.91v4.61H689.69v13.58h19v4.68h-19V516H713v4.68H683.34Z" transform="translate(-243.61 -454.29)"/><path d="M749.65,520.72l-12.09-18.26h-9.1v18.26h-6.35V477.49H737.8a37.5,37.5,0,0,1,7.07.63,16.41,16.41,0,0,1,5.58,2.08,10.4,10.4,0,0,1,3.63,3.76,11.41,11.41,0,0,1,1.3,5.67,10.9,10.9,0,0,1-3.06,8.11,16.24,16.24,0,0,1-8.18,4.15l12.7,18.85ZM728.47,498h8.41q5.89,0,9-2.08a7,7,0,0,0,3.14-6.29q0-4.28-3.14-6t-9-1.71h-8.41Z" transform="translate(-243.61 -454.29)"/><path d="M333.12,503.59l-.1,0a45.33,45.33,0,0,0,.23-4.58q0-2.27-.22-4.48l.1,0-.1-.08a44.53,44.53,0,0,0-4-14.41l.08,0-.11-.09a44.91,44.91,0,0,0-8.7-12.48h0l-.09-.08-.31-.32,0,0a44.93,44.93,0,0,0-12.38-8.66l-.13-.06a44.51,44.51,0,0,0-14.53-4h0c-1.46-.14-2.95-.22-4.45-.22s-3,.08-4.53.23h0v0a44.51,44.51,0,0,0-14.46,4v0l0,0a44.91,44.91,0,0,0-12.54,8.77h0l0,0-.18.17s-.06.08-.05.07A44.93,44.93,0,0,0,247.9,480l0,.09a44.53,44.53,0,0,0,9,50.73c-.06-.12-.11-.05-.17-.17a44.89,44.89,0,0,0,12.42,8.84l.2.09a44.5,44.5,0,0,0,14.56,4.08l0,0v0a45.21,45.21,0,0,0,4.63.24c1.47,0,2.92-.08,4.35-.21h0a43.53,43.53,0,0,0,27.15-12.91h0a44.92,44.92,0,0,0,8.78-12.36l.11-.23A44.52,44.52,0,0,0,333,503.68Zm-5.41-4.53c0,2.34-.15,4.65-.37,6.94-1.94.74-3.92,1.42-5.93,2.06a67.32,67.32,0,0,0,.63-9.19,66.63,66.63,0,0,0-.57-8.71c2,.63,3.95,1.31,5.88,2.05C327.56,494.47,327.7,496.75,327.7,499.06Zm-78.55.09c0-2.32.14-4.61.37-6.87,1.94-.75,3.92-1.43,5.93-2.06a66.87,66.87,0,0,0-.06,17.79c-2-.64-4-1.32-5.88-2.07C249.29,503.7,249.15,501.45,249.15,499.15Zm51.45-19.84a71.15,71.15,0,0,0-11.9-1,72,72,0,0,0-12.51,1.09q.67-3.68,1.58-7.24a102.33,102.33,0,0,1,10.51-.54,104.35,104.35,0,0,1,10.78.56Q299.94,475.69,300.6,479.31Zm3.54-6.48c3,.47,5.94,1.08,8.82,1.8.71,2.84,1.31,5.72,1.76,8.67a67,67,0,0,0-8-2.66A68.77,68.77,0,0,0,304.14,472.83Zm-1.7,26.46a110.15,110.15,0,0,1-.79,13,112.1,112.1,0,0,1-13.32.82,110.08,110.08,0,0,1-13.07-.8,111.87,111.87,0,0,1-.83-13.4,109.9,109.9,0,0,1,.79-13,112,112,0,0,1,13.5-.85,110.37,110.37,0,0,1,12.9.77A111.93,111.93,0,0,1,302.44,499.3ZM270,480.78a68.53,68.53,0,0,0-7.82,2.65c.47-3,1.09-5.95,1.81-8.84,2.84-.71,5.73-1.31,8.68-1.77A67.19,67.19,0,0,0,270,480.78ZM268.64,487a71.07,71.07,0,0,0-1,12,71.92,71.92,0,0,0,1.08,12.4q-3.67-.67-7.24-1.58a102.32,102.32,0,0,1-.53-10.39,103.84,103.84,0,0,1,.57-10.84Q265,487.61,268.64,487ZM256.06,512a62.51,62.51,0,0,0,2.89,10.16c-2.25-.69-4.46-1.43-6.62-2.27a68.85,68.85,0,0,1-2.57-11.74A63.18,63.18,0,0,0,256.06,512Zm6.06,2.83a67.31,67.31,0,0,0,8,2.68,69,69,0,0,0,2.63,7.84c-3-.47-5.94-1.1-8.83-1.82C263.17,520.69,262.57,517.8,262.11,514.84Zm14.13,4a71.18,71.18,0,0,0,12.08,1,71.92,71.92,0,0,0,12.33-1.07q-.67,3.67-1.57,7.23a102.83,102.83,0,0,1-10.33.53,104,104,0,0,1-11-.58Q276.91,522.5,276.25,518.88Zm30.61-1.4a68.72,68.72,0,0,0,7.82-2.62c-.47,3-1.09,5.93-1.81,8.81-2.84.7-5.73,1.3-8.68,1.75A67.12,67.12,0,0,0,306.86,517.48Zm1.35-6.18a71,71,0,0,0,1-12,72.14,72.14,0,0,0-1.08-12.44q3.67.66,7.24,1.57a102.69,102.69,0,0,1,.54,10.44,104.1,104.1,0,0,1-.57,10.89Q311.83,510.64,308.21,511.3Zm18.88-21.37a63.75,63.75,0,0,0-6.31-3.82A62.37,62.37,0,0,0,317.89,476c2.24.68,4.46,1.41,6.62,2.24A68.85,68.85,0,0,1,327.09,489.93Zm-7-22.46a68.82,68.82,0,0,1,3.68,8.59,59.19,59.19,0,0,0-7.7-4.4,59,59,0,0,0-4.47-7.83A69,69,0,0,1,320.07,467.47ZM309.34,463c.85,2.2,1.59,4.45,2.28,6.72a63.61,63.61,0,0,0-10.26-3,64,64,0,0,0-3.84-6.38A68.7,68.7,0,0,1,309.34,463Zm-20.87-3.21c2.3,0,4.57.14,6.82.36.74,1.94,1.42,3.92,2.06,5.93a67.09,67.09,0,0,0-17.84,0c.64-2,1.32-4,2.06-5.88C283.83,460,286.13,459.83,288.47,459.83Zm-9.16.62a63.73,63.73,0,0,0-3.84,6.31,62.34,62.34,0,0,0-10.13,2.91c.68-2.25,1.42-4.46,2.25-6.62A69,69,0,0,1,279.31,460.45Zm-22.49,7a69.18,69.18,0,0,1,8.61-3.7,59.16,59.16,0,0,0-4.42,7.72,59.07,59.07,0,0,0-7.85,4.5A69,69,0,0,1,256.82,467.49Zm2.3,8.44a63.67,63.67,0,0,0-3,10.28,63.51,63.51,0,0,0-6.38,3.86,68.81,68.81,0,0,1,2.63-11.85C254.58,477.37,256.84,476.63,259.11,475.93Zm-2.38,54.71A68.91,68.91,0,0,1,253,522a58.92,58.92,0,0,0,7.71,4.45,59.33,59.33,0,0,0,4.47,7.87A69,69,0,0,1,256.73,530.64Zm10.76,4.46c-.85-2.2-1.59-4.45-2.28-6.73a63.61,63.61,0,0,0,10.26,3,63.63,63.63,0,0,0,3.84,6.38A69,69,0,0,1,267.49,535.1Zm21.07,3.28c-2.36,0-4.69-.15-7-.38-.75-1.95-1.43-3.93-2.06-5.94a66.59,66.59,0,0,0,17.85.09c-.63,2-1.32,4-2.06,5.88C293.07,538.24,290.83,538.38,288.56,538.38Zm12.8-6.89a62.62,62.62,0,0,0,10.13-2.86c-.69,2.24-1.43,4.46-2.26,6.61a68.79,68.79,0,0,1-11.71,2.56A63.53,63.53,0,0,0,301.36,531.49Zm18.62-.66a69.19,69.19,0,0,1-8.61,3.67,59.13,59.13,0,0,0,4.43-7.69,58.92,58.92,0,0,0,7.85-4.44A68.71,68.71,0,0,1,320,530.83Zm4.46-10.77c-2.2.84-4.45,1.59-6.72,2.28a63.49,63.49,0,0,0,3-10.24,63.92,63.92,0,0,0,6.38-3.82A68.75,68.75,0,0,1,324.44,520.07Z" transform="translate(-243.61 -454.29)"/><text class="cls-1" transform="translate(527.57 66.43)">SCREENING</text></svg>